<?xml version="1.0" encoding="UTF-8"?>
<svg id="Icons" xmlns="http://www.w3.org/2000/svg" viewBox="0 0 24 24">
  <path d="M9.89,10.73l2,1.19v2.6m2.04-3.68l-2.04,1.09" style="fill: none; stroke: #000; stroke-miterlimit: 10;"/>
  <path d="M13.86,17.47l-1.96,1.07-1.83-1.04m1.83,1.04v-2.82" style="fill: none; stroke: #000; stroke-linejoin: round;"/>
  <path d="M10.01,6.36l1.96-1.07,1.83,1.04m-1.83-1.04v2.82" style="fill: none; stroke: #000; stroke-linejoin: round;"/>
  <path d="M6.15,10.85l.04-2.24,1.81-1.08m-1.81,1.08l2.46,1.39" style="fill: none; stroke: #000; stroke-linejoin: round;"/>
  <path d="M17.72,12.98l-.04,2.24-1.81,1.08m1.81-1.08l-2.46-1.39" style="fill: none; stroke: #000; stroke-linejoin: round;"/>
  <path d="M8.1,16.37l-1.91-1.16-.02-2.11m.02,2.11l2.44-1.42" style="fill: none; stroke: #000; stroke-linejoin: round;"/>
  <path d="M15.77,7.45l1.91,1.16,.02,2.11m-.02-2.11l-2.44,1.42" style="fill: none; stroke: #000; stroke-linejoin: round;"/>
</svg>