<svg id="Icons" xmlns="http://www.w3.org/2000/svg" viewBox="0 0 24 24">
  <path d="M14.53,4.97c-.21-.19-.55-.04-.55,.25v2.47c0,.18,.15,.33,.33,.33h2.8c.3,0,.44-.37,.22-.57l-2.8-2.47Z" style="fill: none;"/>
  <path d="M17.53,7.21l-2.75-2.43c-.23-.21-.53-.32-.84-.32H7.31c-.71,0-1.28,.58-1.28,1.29v12.39c0,.71,.57,1.29,1.28,1.29h9.38c.71,0,1.28-.58,1.28-1.29V8.18c0-.37-.16-.73-.44-.97Zm-1.4,7.13c0,.25-.13,.48-.35,.6l-3.44,1.99c-.21,.12-.48,.12-.69,0l-3.44-1.99c-.21-.12-.35-.35-.35-.6v-3.97c0-.25,.13-.48,.35-.6l3.44-1.99c.21-.12,.48-.12,.69,0l3.44,1.99c.21,.12,.35,.35,.35,.6v3.97Zm-1.05-4.09l-2.8-1.62c-.17-.1-.39-.1-.56,0l-2.8,1.62c-.17,.1-.28,.29-.28,.49v3.24c0,.2,.11,.39,.28,.49l2.8,1.62c.17,.1,.39,.1,.56,0l2.8-1.62c.17-.1,.28-.29,.28-.49v-3.24c0-.2-.11-.39-.28-.49Zm-1.47,3.05c.01,.33-.32,.64-.78,.71-.48,.07-.92-.15-.97-.5-.05-.35,.3-.69,.78-.76,.19-.03,.37-.01,.52,.04l.02-1.63c0-.18-.03-.38-.2-.35l-1.15,.22c-.13,.02-.22,.14-.22,.28,0,0,0,2.15,0,2.19,.05,.35-.3,.69-.78,.76-.48,.07-.92-.15-.97-.5s.3-.69,.78-.76c.18-.03,.35-.01,.49,.03v-2.12c0-.13,.08-.24,.2-.28l1.98-.37c.18-.05,.35,.1,.35,.3l-.06,2.75Z" style="fill: #fff;"/>
</svg>