<?xml version="1.0" encoding="UTF-8"?>
<svg id="Icons" xmlns="http://www.w3.org/2000/svg" viewBox="0 0 24 24">
  <path d="M8.81,11.46c.38-1.54,1.77-2.68,3.42-2.68,1.95,0,3.52,1.58,3.52,3.52,0,1.95-1.58,3.52-3.52,3.52-1.64,0-3.02-1.12-3.41-2.64" style="fill: none; stroke: #000; stroke-miterlimit: 10;"/>
  <path d="M5.9,11.46c.42-3.12,3.09-5.53,6.33-5.53,3.53,0,6.38,2.86,6.38,6.38,0,3.53-2.86,6.38-6.38,6.38-3.23,0-5.89-2.39-6.32-5.5" style="fill: none; stroke: #000; stroke-miterlimit: 10;"/>
  <line x1="12.61" y1="12.31" x2="2.99" y2="12.31" style="fill: none; stroke: #000; stroke-linecap: round; stroke-miterlimit: 10;"/>
  <polyline points="10.89 13.91 13.15 12.31 10.86 10.47" style="fill: none; stroke: #000; stroke-linejoin: round;"/>
</svg>