<?xml version="1.0" encoding="UTF-8"?>
<svg id="Icons" xmlns="http://www.w3.org/2000/svg" viewBox="0 0 24 24">
  <path d="M6.61,10.08c-.24-.1-.24-.42,0-.51l4.19-1.61c.83-.32,1.75-.31,2.57,.02l4.03,1.63c.24,.1,.24,.41,0,.51l-.06,.03-4.18,1.87c-.68,.31-1.46,.31-2.14,0l-4.41-1.95" style="fill: none; stroke: #000; stroke-linecap: round; stroke-miterlimit: 10;"/>
  <path d="M9.27,11.25l-2.66,1.02c-.24,.09-.25,.41,0,.51h0s4.41,1.94,4.41,1.94c.68,.3,1.46,.3,2.14,0l2.07-.93,2.11-.94,.06-.03c.24-.1,.24-.41,0-.51l-2.58-1.04" style="fill: none; stroke: #000; stroke-linecap: round; stroke-miterlimit: 10;"/>
  <path d="M8.82,13.87l-2.21,.85c-.24,.09-.25,.41,0,.51h0s4.41,1.94,4.41,1.94c.68,.3,1.46,.3,2.14,0l4.18-1.87,.06-.03c.24-.1,.24-.41,0-.51l-2.17-.96" style="fill: none; stroke: #000; stroke-linecap: round; stroke-miterlimit: 10;"/>
</svg>