<?xml version="1.0" encoding="UTF-8"?>
<svg id="Icons" xmlns="http://www.w3.org/2000/svg" viewBox="0 0 24 24">
  <path d="M12.27,8.52c4.15,0,7.51,3.72,7.51,8.31,0,1.26-3.18,2.92-7.33,2.92s-7.69-2.11-7.69-2.92c0-.95,.14-1.85,.4-2.7" style="fill: none; stroke: #000; stroke-miterlimit: 10;"/>
  <path d="M19.39,17.27c-.82-.47-3.53-1.63-7.35-1.63-3.82,0-6.13,.91-7.01,1.45" style="fill: none; stroke: #000; stroke-miterlimit: 10;"/>
  <path d="M8.29,6.24v1.6m0,4.75v1.6m-3.98-3.98h1.6m4.75,0h1.6m-6.79-2.81l1.13,1.13m3.36,3.36l1.13,1.13m0-5.62l-1.13,1.13m-3.36,3.36l-1.13,1.13m1.2-2.61v-.17c0-.89,.73-1.59,1.61-1.59s1.61,.72,1.61,1.61-.72,1.61-1.61,1.61-1.61-.72-1.61-1.6v-.23" style="fill: none; stroke: #000; stroke-miterlimit: 10;"/>
</svg>