<?xml version="1.0" encoding="UTF-8"?>
<svg id="Icons" xmlns="http://www.w3.org/2000/svg" viewBox="0 0 24 24">
  <path d="M10.73,16.38v-4.13c0-.42,.27-.8,.68-.96,0,0,4.18-1.66,4.18-1.66v-1.36c0-.75-.81-1.25-1.55-.96l-5.25,2.08c-.41,.16-.68,.54-.68,.96v5.47c0,.75,.81,1.25,1.55,.96l1.06-.42" style="fill: #fff;"/>
  <path d="M7.44,14v-4.13c0-.42,.27-.8,.68-.96,0,0,4.18-1.66,4.18-1.66v-1.36c0-.75-.81-1.25-1.55-.96l-5.25,2.08c-.41,.16-.68,.54-.68,.96v5.47c0,.75,.81,1.25,1.55,.96l1.06-.42" style="fill: #fff;"/>
  <path d="M11.41,17.02v-4.24c0-.43,.27-.82,.7-.98l4.29-1.74,1.09-.43c.75-.3,1.59,.22,1.59,.98v5.6c0,.43-.27,.82-.7,.98l-5.38,2.14c-.75,.3-1.59-.22-1.59-.98v-1.37" style="fill: #fff;"/>
</svg>