<?xml version="1.0" encoding="UTF-8"?>
<svg id="Icons" xmlns="http://www.w3.org/2000/svg" viewBox="0 0 24 24">
  <circle cx="11.91" cy="12.12" r="2.65" style="fill: none; stroke: #000; stroke-miterlimit: 10;"/>
  <path d="M7.1,13.81l-1.94-.38c-.24-.05-.42-.26-.42-.51v-1.5c0-.25,.18-.46,.42-.51l1.94-.38,.25-.6-1.1-1.64c-.14-.21-.11-.48,.06-.66l1.06-1.06c.18-.18,.45-.2,.66-.06l1.64,1.1,.6-.25,.38-1.94c.05-.24,.26-.42,.51-.42h1.5c.25,0,.46,.18,.51,.42l.38,1.94,.6,.25,1.64-1.1c.21-.14,.48-.11,.66,.06l1.06,1.06c.18,.18,.2,.45,.06,.66l-1.1,1.64,.25,.6,1.94,.38c.24,.05,.42,.26,.42,.51v1.5c0,.25-.18,.46-.42,.51l-1.94,.38-.25,.6,1.1,1.64c.14,.21,.11,.48-.06,.66l-1.06,1.06c-.18,.18-.45,.2-.66,.06l-1.64-1.1-.6,.25-.38,1.94c-.05,.24-.26,.42-.51,.42h-1.5c-.25,0-.46-.18-.51-.42l-.38-1.94-.6-.25-1.64,1.1c-.21,.14-.48,.11-.66-.06l-1.06-1.06c-.18-.18-.2-.45-.06-.66l1.1-1.64-.25-.6Z" style="fill: none; stroke: #000; stroke-linejoin: round;"/>
</svg>