<?xml version="1.0" encoding="UTF-8"?>
<svg id="Icons" xmlns="http://www.w3.org/2000/svg" viewBox="0 0 24 24">
  <path d="M18.69,13.72v3.11c0,.84-.69,1.54-1.54,1.54h-3.19m4.73-8.89v-2.94c0-.84-.69-1.54-1.54-1.54h-3.19m-4.05,0h-3.06c-.84,0-1.54,.69-1.54,1.54v2.94m0,4.25v3.11c0,.84,.69,1.54,1.54,1.54h3.06" style="fill: none; stroke: #000; stroke-miterlimit: 10;"/>
  <rect x="8.16" y="12.99" width="2.63" height="2.63" style="fill: none; stroke: #000; stroke-miterlimit: 10;"/>
  <rect x="8.16" y="8" width="2.63" height="2.63" style="fill: none; stroke: #000; stroke-miterlimit: 10;"/>
  <rect x="13.41" y="8" width="2.63" height="2.63" style="fill: none; stroke: #000; stroke-miterlimit: 10;"/>
  <rect x="13.41" y="12.95" width=".27" height=".27" style="fill: none; stroke: #000; stroke-miterlimit: 10;"/>
  <rect x="13.41" y="15.29" width=".27" height=".27" style="fill: none; stroke: #000; stroke-miterlimit: 10;"/>
  <rect x="15.89" y="15.29" width=".27" height=".27" style="fill: none; stroke: #000; stroke-miterlimit: 10;"/>
  <rect x="14.68" y="14.2" width="1.48" height=".11" style="fill: none; stroke: #000; stroke-miterlimit: 10;"/>
</svg>